<?xml version="1.0" encoding="UTF-8" standalone="no"?>
<svg width="362px" height="55px" viewBox="0 0 362 55" version="1.1" xmlns="http://www.w3.org/2000/svg" xmlns:xlink="http://www.w3.org/1999/xlink" xmlns:sketch="http://www.bohemiancoding.com/sketch/ns">
    <!-- Generator: Sketch 3.1 (8751) - http://www.bohemiancoding.com/sketch -->
    <title>Artboard 1</title>
    <desc>Created with Sketch.</desc>
    <defs></defs>
    <g id="logo" stroke="none" stroke-width="1" fill="none" fill-rule="evenodd" sketch:type="MSPage">
        <g id="Artboard-1" sketch:type="MSArtboardGroup" fill="#2980B9">
            <g id="Logo-2" sketch:type="MSLayerGroup">
                <text id="FLIGHTY---GURT" sketch:type="MSTextLayer" font-family="Helvetica Neue" font-size="45" font-weight="bold" letter-spacing="1">
                    <tspan x="0" y="44">FLIGHT</tspan>
                    <tspan x="167.64" y="44" font-weight="260" fill="#8E44AD">Y   </tspan>
                    <tspan x="236.665" y="44" font-weight="260">GUR</tspan>
                    <tspan x="333.85" y="44" font-weight="260">T</tspan>
                </text>
                <path d="M217.182159,26.9085973 L222.480187,26.9085973 C223.219977,26.9085973 223.819577,27.5211511 223.819577,28.2769231 C223.819577,29.032695 223.219977,29.6452489 222.480187,29.6452489 L217.182159,29.6452489 L217.182159,29.6452489 L211.765075,36.0307692 L210.425686,36.0307692 L213.342577,29.6452489 L209.022516,29.6452489 L207.746907,31.9257919 L207.300444,31.9257919 L207.300444,24.6280543 L207.746907,24.6280543 L209.022516,26.9085973 L209.022516,26.9085973 L213.342577,26.9085973 L210.425686,20.5230769 L211.765075,20.5230769 L217.182159,26.9085973 Z M214.183416,46 C224.066953,46 232.079143,37.9411255 232.079143,28 C232.079143,18.0588745 224.066953,10 214.183416,10 C204.299879,10 196.28769,18.0588745 196.28769,28 C196.28769,37.9411255 204.299879,46 214.183416,46 Z" id="flight_icon-2" sketch:type="MSShapeGroup" transform="translate(214.183416, 28.000000) rotate(-90.000000) translate(-214.183416, -28.000000) "></path>
            </g>
        </g>
    </g>
</svg>